<?xml version="1.0" encoding="UTF-8" standalone="no"?>
<!DOCTYPE svg PUBLIC "-//W3C//DTD SVG 1.1//EN" "http://www.w3.org/Graphics/SVG/1.1/DTD/svg11.dtd">
<svg width="100%" height="100%" viewBox="0 0 512 160" version="1.1" xmlns="http://www.w3.org/2000/svg" xmlns:xlink="http://www.w3.org/1999/xlink" xml:space="preserve" xmlns:serif="http://www.serif.com/" style="fill-rule:evenodd;clip-rule:evenodd;stroke-linejoin:round;stroke-miterlimit:2;">
    <rect id="Minimal" x="0" y="0" width="512" height="160" style="fill:none;"/>
    <g id="Minimal1" serif:id="Minimal">
        <g>
            <g id="Paper">
                <path d="M84.067,144.603c0.542,-0.183 1.13,0.109 1.312,0.651c0.182,0.541 -0.11,1.129 -0.651,1.311c-2.726,0.982 -5.529,1.641 -8.37,2.086c-4.226,0.663 -8.534,0.835 -12.801,0.843c-1.748,0.006 -3.949,-0.023 -6.086,-0.166c-1.467,-0.098 -2.901,-0.256 -4.147,-0.484c-3.192,-0.59 -6.504,-1.331 -9.74,-2.296c-3.301,-0.985 -6.516,-2.211 -9.46,-3.7c-3.548,-1.836 -7.049,-4.265 -10.104,-7.18c-3.051,-2.911 -5.652,-6.299 -7.549,-9.916c-0.75,-1.449 -1.421,-3.113 -1.991,-4.834c-0.835,-2.52 -1.475,-5.151 -1.951,-7.32c-1.292,-5.931 -2.106,-11.547 -2.536,-17.195c-0.428,-5.631 -0.481,-11.285 -0.249,-17.304c0.01,-0.592 0.499,-1.063 1.09,-1.053c0.591,0.01 1.062,0.498 1.052,1.09c0.024,5.923 0.309,11.474 0.968,16.987c0.654,5.479 1.684,10.911 3.192,16.629c0.533,2.039 1.248,4.508 2.124,6.871c0.555,1.499 1.178,2.953 1.877,4.21c1.758,3.2 4.191,6.134 6.928,8.728c2.778,2.633 5.879,4.919 9.074,6.624c2.695,1.471 5.658,2.684 8.696,3.709c3.078,1.038 6.227,1.89 9.271,2.58c1.123,0.256 2.419,0.451 3.746,0.6c2.053,0.231 4.171,0.36 5.855,0.433c4.127,0.175 8.302,0.202 12.418,-0.262c2.716,-0.306 5.404,-0.82 8.032,-1.642Z" style="fill:#007d7d;"/>
                <path d="M32.653,81.815c0.024,-0.571 0.507,-1.015 1.077,-0.992c0.571,0.024 1.016,0.507 0.992,1.078c0.004,0.576 1.261,5.134 2.595,9.681c1.325,4.517 2.759,8.984 3.013,9.489c0.469,1.09 -0.036,2.356 -1.126,2.824c-1.09,0.469 -2.356,-0.036 -2.824,-1.126c-0.234,-0.648 -1.42,-6.974 -2.399,-12.524c-0.739,-4.185 -1.374,-7.906 -1.328,-8.43Z" style="fill:#007d7d;"/>
                <path d="M66.713,71.971c-0.207,-0.826 0.296,-1.664 1.122,-1.871c0.826,-0.207 1.664,0.296 1.871,1.122c1.41,4.955 2.459,9.882 3.277,14.861c0.816,4.959 1.39,9.957 1.849,15.073c0.079,1.377 -0.975,2.56 -2.352,2.64c-1.378,0.079 -2.561,-0.975 -2.64,-2.352c-0.13,-5.024 -0.377,-9.939 -0.865,-14.832c-0.486,-4.888 -1.199,-9.739 -2.262,-14.641Z" style="fill:#007d7d;"/>
                <path d="M218.761,12.891c0.536,0.196 0.813,0.791 0.616,1.328c-0.196,0.537 -0.791,0.813 -1.328,0.617c-4.925,-1.77 -9.871,-3.477 -14.903,-4.88c-3.332,-0.929 -6.701,-1.723 -10.126,-2.314c-8.003,-1.379 -16.009,-1.973 -24.009,-1.865c-8.002,0.108 -15.996,0.922 -23.974,2.351c-3.262,0.586 -6.646,1.346 -9.955,2.34c-3.271,0.982 -6.468,2.195 -9.396,3.7c-4.136,2.125 -7.926,4.942 -11.392,8.127c-3.507,3.223 -6.679,6.828 -9.538,10.492c-2.015,2.584 -4.16,5.586 -5.851,8.767c-1.086,2.042 -1.982,4.158 -2.516,6.282c-0.927,3.667 -1.824,7.679 -1.897,11.641c-0.047,2.495 0.24,4.97 1.094,7.309c0.6,1.651 1.61,3.032 2.767,4.307c1.989,2.193 4.405,4.08 6.39,6.193c1.589,1.692 2.605,3.646 2.953,5.687c0.358,2.103 0.016,4.314 -1.206,6.475c-0.348,0.613 -0.745,1.203 -1.181,1.761c-0.433,0.554 -0.904,1.077 -1.406,1.563c-0.562,0.546 -1.166,1.049 -1.796,1.518c-0.601,0.449 -1.226,0.868 -1.86,1.265c-0.717,0.451 -1.457,0.866 -2.21,1.256c-0.734,0.38 -1.481,0.735 -2.232,1.075c-2.027,0.911 -4.217,1.714 -6.449,2.424c-3.309,1.051 -6.71,1.9 -9.791,2.618c-7.863,1.807 -15.633,3.001 -23.395,3.138c-7.813,0.137 -15.618,-0.789 -23.497,-3.221c-6.454,-1.991 -13.649,-5.879 -18.205,-11.424c-3.178,-3.87 -5.104,-8.529 -4.716,-13.918c0.171,-2.415 0.919,-4.531 2.062,-6.413c1.643,-2.706 4.115,-4.926 6.831,-6.833c4.783,-3.366 10.266,-5.179 15.958,-5.902c5.568,-0.707 11.335,-0.372 16.821,0.548c3.229,0.539 7.42,1.472 10.908,3.242c2.561,1.298 4.743,3.05 6.024,5.359c1.408,2.538 1.378,5.193 0.481,7.675c-1.232,3.409 -4.165,6.48 -6.952,8.287c-2.86,1.855 -6.146,3.17 -9.611,3.942c-3.342,0.744 -6.849,0.984 -10.292,0.722c-1.956,-0.148 -4.239,-0.625 -6.037,-1.71c-1.353,-0.818 -2.442,-1.967 -3.019,-3.534c-0.575,-1.559 -0.421,-2.988 0.149,-4.255c0.776,-1.724 2.4,-3.139 3.91,-4.082c1.239,-0.774 3.286,-1.495 5.387,-1.907c2.164,-0.425 4.378,-0.507 5.837,-0.102c0.762,0.211 1.209,1.001 0.998,1.763c-0.212,0.761 -1.002,1.208 -1.763,0.997c-1.131,-0.313 -2.844,-0.176 -4.52,0.153c-1.719,0.338 -3.406,0.894 -4.42,1.528c-0.907,0.566 -1.9,1.339 -2.525,2.305c-0.484,0.746 -0.723,1.623 -0.36,2.607c0.436,1.182 1.398,1.927 2.499,2.429c1.29,0.588 2.78,0.844 4.081,0.942c3.161,0.239 6.381,0.019 9.448,-0.665c3.125,-0.698 6.091,-1.877 8.669,-3.551c1.94,-1.26 3.982,-3.239 5.2,-5.515c1.11,-2.073 1.533,-4.411 0.303,-6.621c-1.012,-1.82 -2.78,-3.149 -4.802,-4.171c-3.22,-1.629 -7.093,-2.461 -10.072,-2.955c-5.209,-0.861 -10.683,-1.178 -15.965,-0.493c-5.208,0.675 -10.23,2.329 -14.599,5.424c-1.969,1.396 -3.809,2.961 -5.19,4.818c-1.307,1.757 -2.189,3.782 -2.339,6.174c-0.276,4.527 1.414,8.412 4.123,11.626c4.204,4.989 10.83,8.379 16.722,10.106c7.522,2.203 14.953,2.969 22.378,2.737c7.485,-0.235 14.963,-1.489 22.524,-3.33c2.975,-0.715 6.26,-1.559 9.453,-2.596c2.07,-0.672 4.101,-1.426 5.979,-2.283c0.683,-0.309 1.362,-0.632 2.029,-0.977c0.648,-0.335 1.285,-0.692 1.902,-1.079c0.536,-0.336 1.065,-0.689 1.574,-1.069c0.481,-0.359 0.944,-0.742 1.374,-1.159c0.361,-0.35 0.7,-0.725 1.01,-1.123c0.307,-0.393 0.587,-0.807 0.831,-1.238c0.695,-1.216 0.923,-2.457 0.727,-3.645c-0.207,-1.26 -0.863,-2.45 -1.836,-3.501c-2.349,-2.536 -5.292,-4.77 -7.443,-7.542c-1.044,-1.345 -1.915,-2.807 -2.498,-4.456c-0.997,-2.824 -1.337,-5.799 -1.249,-8.799c0.124,-4.268 1.11,-8.584 2.15,-12.524c0.64,-2.409 1.68,-4.81 2.946,-7.117c1.841,-3.353 4.154,-6.515 6.33,-9.229c3.026,-3.776 6.382,-7.484 10.078,-10.794c3.733,-3.344 7.809,-6.285 12.241,-8.493c3.12,-1.553 6.519,-2.798 9.996,-3.791c3.437,-0.982 6.948,-1.72 10.331,-2.279c8.151,-1.35 16.31,-2.069 24.468,-2.073c8.155,-0.004 16.308,0.703 24.448,2.212c3.495,0.648 6.93,1.502 10.326,2.493c5.065,1.479 10.042,3.259 14.995,5.105Z" style="fill:#007d7d;"/>
            </g>
            <path id="Ground" d="M336.479,150.567c2.438,-0.119 4.859,-0.459 7.276,-0.769c1.013,-0.13 2.073,-0.172 3.007,-0.55c0.511,-0.206 0.314,-1.377 -0.1,-1.534c-5.419,-2.062 -16.407,-2.811 -20.208,-3.297c-9.061,-1.159 -18.135,-2.232 -27.183,-3.47c-4.678,-0.641 -9.286,-1.72 -13.991,-2.166c-10.94,-1.038 -31.686,0.56 -39.754,0.71c-7.479,0.138 -14.462,-2.258 -21.866,-2.8c-4.365,-0.319 -9.085,1.619 -13.335,1.907c-5.658,0.384 -11.363,-0.487 -17.021,-0.096c-7.269,0.502 -14.42,2.065 -21.692,2.53c-1.639,0.104 -3.071,-2.381 -4.323,-2.811c-2.589,-0.889 -11.517,-2.418 -14.236,-2.627c-4.492,-0.345 -7.377,2.6 -11.213,3.954c-3.207,1.133 -7.307,-0.002 -10.493,-0.501c-6.745,-1.057 -14.202,-3.119 -21.111,-3.174c-4.937,-0.04 -10.481,1.69 -14.914,3.467c-0.211,0.084 -7.325,2.582 -6.219,4.983c1.023,2.221 6.174,1.408 9.265,2.099c3.911,0.873 9.506,2.603 14.201,3.14c4.621,0.528 9.207,-0.512 13.971,0.082c3.824,0.477 7.185,2.823 10.754,3.975c2.896,0.935 4.255,1.113 7.307,0.923c5.519,-0.344 5.328,-1.327 11.145,-1.419c5.218,-0.083 10.425,1.553 15.66,1.118c4.399,-0.365 8.13,-2.993 12.489,-3.353c9.531,-0.787 19.194,1.477 28.756,1.195c7.153,-0.211 7.227,-1.196 14.201,-1.557c3.399,-0.176 6.981,0.489 10.369,0.496c3.555,0.007 7.109,-0.415 10.661,-0.286c7.621,0.277 7.425,1.701 15.005,1.714c5.774,0.009 11.467,-1.525 17.242,-1.529c7.096,-0.004 14.126,1.503 21.222,1.517c8.347,0.017 13.452,-1.232 21.671,-1.634c4.48,-0.219 8.977,-0.02 13.457,-0.237Z" style="fill:#007d7d;"/>
            <g id="Drawing">
                <g id="Bike">
                    <path d="M175.259,90.148c-1.474,-0.529 -2.939,-1.088 -4.477,-1.343c-1.647,-0.294 -3.454,-0.433 -5.266,-0.448c-1.848,-0.016 -3.695,0.077 -5.383,0.277c-0.734,0.119 -1.427,-0.381 -1.546,-1.115c-0.119,-0.734 0.38,-1.427 1.115,-1.547c1.781,-0.367 3.74,-0.647 5.714,-0.789c2.006,-0.144 4.017,-0.126 5.865,0.063c0.657,0.07 1.305,0.188 1.949,0.336c2.235,0.513 4.389,1.446 6.663,1.751c0.785,0.121 1.423,0.697 1.624,1.465c0.2,0.769 -0.075,1.583 -0.701,2.072c-1.227,0.946 -2.456,1.891 -3.712,2.799c-1.876,1.356 -3.793,2.648 -5.699,3.96c-0.907,0.611 -1.793,1.256 -2.713,1.848c-0.657,0.424 -1.325,0.825 -2.024,1.174c-0.58,0.289 -1.179,0.529 -1.795,0.732c-0.818,0.269 -1.655,0.484 -2.472,0.752c-0.709,0.269 -1.503,-0.088 -1.771,-0.797c-0.269,-0.709 0.088,-1.502 0.797,-1.771c0.789,-0.341 1.603,-0.633 2.395,-0.971c0.462,-0.197 0.912,-0.417 1.341,-0.678c0.57,-0.345 1.106,-0.737 1.637,-1.14c0.854,-0.65 1.676,-1.343 2.518,-2.007l5.941,-4.623Z" style="fill:#007d7d;"/>
                    <path d="M182.98,115.726c0.323,-0.131 0.694,-0.14 1.041,0.004c0.7,0.289 1.034,1.093 0.744,1.794c-0.699,1.915 -1.918,1.833 -2.642,1.585c-0.452,-0.156 -0.951,-0.628 -1.348,-1.306c-0.488,-0.834 -0.842,-2.073 -0.897,-2.255c-0.663,-2.228 -1.018,-3.622 -1.283,-5.037c-0.262,-1.395 -0.425,-2.807 -0.719,-5.075c-0.179,-1.571 -0.412,-3.344 -0.592,-5.242c-0.237,-2.495 -0.43,-5.198 -0.584,-7.903c-0.273,-4.789 -0.379,-9.575 -0.35,-13.259c-0.024,-0.743 0.561,-1.366 1.305,-1.389c0.744,-0.024 1.366,0.561 1.39,1.305c0.223,3.091 0.678,6.951 1.133,10.94c0.278,2.444 0.581,4.929 0.821,7.311c0.29,2.869 0.485,5.585 0.689,7.863c0.147,2.199 0.227,3.564 0.384,4.922c0.154,1.339 0.375,2.665 0.829,4.793c0.013,0.065 0.025,0.509 0.079,0.949Zm0.152,0.702c0.078,0.195 0.185,0.291 0.333,0.185c0.137,-0.098 -0.128,-0.15 -0.333,-0.185Z" style="fill:#007d7d;"/>
                    <path d="M180.648,75.023c0.583,-0.462 1.432,-0.362 1.893,0.221c0.462,0.584 0.363,1.432 -0.221,1.894c-0.846,0.831 -1.101,1.256 -1.588,1.715c-0.345,0.326 -0.795,0.631 -1.53,1.076c-0.376,0.221 -0.783,0.333 -1.193,0.433c-0.479,0.117 -0.977,0.143 -1.474,0.183c-0.273,0.021 -0.549,0.024 -0.786,0.183c-0.281,0.169 -0.329,0.313 -0.426,0.449c-0.113,0.158 -0.235,0.321 -0.398,0.486c-0.235,0.237 -0.533,0.507 -1.008,0.781c-0.484,0.272 -0.886,0.464 -1.27,0.581c-0.395,0.12 -0.745,0.197 -1.123,0.26c-0.302,0.05 -0.628,0.07 -1.047,0.223l-2.686,1.155c-0.699,0.295 -1.505,-0.033 -1.8,-0.731c-0.294,-0.699 0.034,-1.505 0.732,-1.8l2.32,-1.66c0.857,-0.498 1.445,-0.615 2.082,-0.862c0.214,-0.083 0.418,-0.221 0.69,-0.423c0.31,-0.216 0.331,-0.406 0.44,-0.567c0.115,-0.171 0.248,-0.339 0.419,-0.515c0.235,-0.241 0.548,-0.501 1.028,-0.777c0.609,-0.334 1.234,-0.526 1.89,-0.567c0.412,-0.026 0.83,-0.011 1.249,0.009c0.288,0.015 0.577,0.122 0.853,0.015c0.514,-0.187 0.841,-0.304 1.099,-0.463c0.551,-0.339 0.882,-0.686 1.855,-1.299Z" style="fill:#007d7d;"/>
                    <path d="M179.63,92.12l-0.061,0.052c0.839,-0.382 1.757,-0.63 2.701,-0.792c1.304,-0.224 2.66,-0.273 3.899,-0.3c4.094,-0.085 8.194,0.736 11.658,2.565c3.613,1.908 6.529,4.916 8.102,9.134c0.605,1.624 0.968,3.135 1.213,4.652c0.343,2.129 0.438,4.274 0.658,6.812c0.163,1.893 0.325,3.985 0.299,6.038c-0.018,1.453 -0.135,2.887 -0.397,4.226c-0.507,2.573 -1.832,5.015 -3.619,7.18c-2.513,3.045 -5.946,5.531 -9.063,7.084c-5.532,2.715 -12.939,2.487 -19.277,-0.117c-6.452,-2.65 -11.731,-7.71 -12.971,-14.187c-0.408,-2.158 -0.699,-4.518 -0.801,-6.884c-0.103,-2.393 -0.018,-4.79 0.319,-6.995c0.689,-4.469 3.076,-8.434 6.339,-11.621c3.157,-3.084 7.113,-5.445 11.001,-6.847Zm1.026,2.519l-0.061,0.052c-3.486,1.358 -7.012,3.58 -9.8,6.44c-2.693,2.763 -4.688,6.135 -5.181,9.929c-0.263,2.002 -0.287,4.173 -0.15,6.337c0.14,2.189 0.451,4.369 0.869,6.36c1.092,5.262 5.601,9.163 10.879,11.273c5.298,2.117 11.452,2.451 16.05,0.174c2.257,-1.101 4.708,-2.765 6.733,-4.803c1.917,-1.929 3.476,-4.186 3.995,-6.651c0.238,-1.122 0.347,-2.326 0.383,-3.547c0.057,-1.93 -0.064,-3.9 -0.185,-5.683c-0.165,-2.446 -0.213,-4.512 -0.5,-6.569c-0.183,-1.309 -0.462,-2.615 -0.951,-4.023c-1.195,-3.444 -3.519,-5.914 -6.407,-7.527c-2.988,-1.67 -6.558,-2.452 -10.137,-2.466c-1.108,-0.005 -2.321,0 -3.491,0.171c-0.712,0.103 -1.409,0.262 -2.046,0.533Z" style="fill:#007d7d;"/>
                    <path d="M174.663,112.561c0.74,0.077 1.278,0.741 1.201,1.481c-0.077,0.74 -0.741,1.278 -1.481,1.201c-0.89,0.07 -1.754,0.207 -2.675,0.237c-0.629,0.021 -1.257,0.009 -1.878,-0.085c-0.488,-0.074 -0.966,-0.201 -1.425,-0.373c-1.14,-0.429 -2.162,-1.002 -3.096,-1.806c-0.651,-0.388 -0.865,-1.231 -0.477,-1.882c0.388,-0.652 1.232,-0.866 1.883,-0.478c0.873,0.334 1.762,0.354 2.681,0.459c0.31,0.036 0.619,0.062 0.928,0.113c0.318,0.053 0.633,0.122 0.947,0.198c1.168,0.283 2.272,0.623 3.392,0.935Z" style="fill:#007d7d;"/>
                    <path d="M172.062,132.863c-0.407,0.623 -1.244,0.798 -1.866,0.391c-0.623,-0.407 -0.798,-1.243 -0.391,-1.866c0.319,-0.793 0.593,-1.58 0.992,-2.366c0.274,-0.54 0.586,-1.056 0.967,-1.523c0.301,-0.369 0.644,-0.7 1.02,-0.985c0.933,-0.708 1.925,-1.235 3.084,-1.531c0.687,-0.32 1.505,-0.023 1.825,0.664c0.321,0.687 0.023,1.505 -0.664,1.826c-0.471,0.349 -0.773,0.806 -1.153,1.234c-0.382,0.43 -0.683,0.914 -1.057,1.36c-0.318,0.38 -0.679,0.716 -1.023,1.077c-0.579,0.607 -1.165,1.138 -1.734,1.719Z" style="fill:#007d7d;"/>
                    <path d="M184.361,125.675c-0.077,-0.741 0.462,-1.403 1.202,-1.48c0.74,-0.076 1.403,0.462 1.48,1.203l0.497,2.9c0.136,1.037 0.23,2.215 0.402,3.361c0.087,0.579 0.187,1.147 0.417,1.652c0.283,0.797 0.695,1.573 1.317,2.064c0.537,0.423 1.155,0.764 1.934,0.557c0.707,-0.271 1.502,0.083 1.774,0.79c0.272,0.708 -0.082,1.503 -0.79,1.775c-1.369,0.708 -2.709,0.635 -3.93,0.232c-1.701,-0.562 -3.063,-2.12 -3.954,-3.844c-0.359,-0.877 -0.586,-1.842 -0.636,-2.841c-0.06,-1.226 0.112,-2.475 0.147,-3.582l0.14,-2.787Z" style="fill:#007d7d;"/>
                    <path d="M127.484,113.524l4.134,-0.511l3.362,-0.821c0.941,-0.188 1.728,-0.265 2.531,-0.163c0.575,0.072 1.155,0.252 1.796,0.562c0.561,0.273 1.518,1.393 1.629,2.402c0.08,0.732 -0.164,1.411 -0.782,1.964c-0.459,0.411 -1.01,0.674 -1.604,0.848c-0.885,0.258 -1.916,0.226 -2.717,0.321l-7.966,0.992c-0.603,0.058 -1.843,0.048 -2.825,-0.152c-0.713,-0.144 -1.313,-0.416 -1.7,-0.712c-0.876,-0.668 -1.192,-1.467 -1.254,-2.264c-0.067,-0.854 0.291,-1.784 0.699,-2.523c0.511,-0.905 1.428,-2.039 2.055,-3.234c0.251,-0.477 0.492,-0.95 0.462,-1.432c-0.114,-1.964 -0.524,-3.904 -0.718,-5.861c-0.053,-0.54 -0.092,-1.08 -0.107,-1.622c-0.011,-0.452 -0.001,-0.904 0.029,-1.355c0.103,-1.541 0.432,-3.073 0.427,-4.619c0,-0.841 -0.447,-1.642 -0.577,-2.469c-0.056,-0.355 -0.086,-0.711 -0.059,-1.072c0.093,-1.239 0.964,-2.51 2.417,-3.503c2.324,-1.589 6.055,-2.687 6.685,-2.925c0.689,-0.281 1.477,0.049 1.758,0.738c0.282,0.688 -0.048,1.476 -0.737,1.758c-0.436,0.193 -2.529,0.93 -4.415,1.974c-0.788,0.437 -1.535,0.932 -2.063,1.468c-0.213,0.216 -0.406,0.413 -0.412,0.65c-0.007,0.28 0.098,0.544 0.188,0.814c0.162,0.484 0.35,0.966 0.474,1.456c0.085,0.337 0.135,0.679 0.152,1.025c0.078,1.622 -0.178,3.247 -0.216,4.869c-0.008,0.341 -0.002,0.682 0.021,1.022c0.029,0.456 0.081,0.91 0.141,1.363c0.266,2.005 0.734,3.989 0.911,6.005c0.078,0.919 -0.118,1.868 -0.498,2.8c-0.31,0.758 -0.766,1.507 -1.221,2.207Zm10.07,1.985c0.001,0.001 0.001,0.002 0.002,0.002c0.035,0.078 0.154,0.076 0.196,0.099c-0.068,-0.037 -0.133,-0.071 -0.198,-0.101Z" style="fill:#007d7d;"/>
                    <path d="M127.159,90.317l0.196,-0.036c3.865,0.02 8.954,0.45 13.303,2.047c3.172,1.166 5.94,2.967 7.708,5.577c3.013,4.458 4.849,9.568 5.371,14.788c0.528,5.283 -0.306,10.675 -2.598,15.631c-0.659,1.416 -1.792,2.735 -3.134,3.901c-1.78,1.545 -3.928,2.823 -5.541,3.762c-1.581,0.917 -2.855,1.559 -4.189,2.026c-1.358,0.475 -2.777,0.771 -4.639,0.965c-3.765,0.378 -7.997,0.368 -11.867,-0.626c-2.741,-0.704 -5.302,-1.894 -7.431,-3.735c-5.378,-4.676 -7.8,-11.653 -7.564,-18.664c0.231,-6.878 2.999,-13.755 7.827,-18.364c2.067,-1.968 4.302,-3.951 6.821,-5.35c1.766,-0.979 3.664,-1.684 5.737,-1.922Zm0.147,2.71l0.195,-0.036c-1.698,0.24 -3.24,0.87 -4.669,1.712c-2.272,1.338 -4.255,3.221 -6.099,5.069c-4.14,4.137 -6.389,10.229 -6.47,16.263c-0.079,5.917 1.956,11.807 6.561,15.672c2.128,1.796 4.8,2.733 7.585,3.187c2.945,0.481 6.025,0.412 8.816,0.114c1.498,-0.155 2.644,-0.381 3.739,-0.761c1.121,-0.388 2.189,-0.932 3.52,-1.695c1.444,-0.823 3.375,-1.933 4.974,-3.291c0.918,-0.78 1.738,-1.63 2.196,-2.583c2.08,-4.309 2.865,-9.023 2.49,-13.66c-0.377,-4.67 -1.913,-9.266 -4.517,-13.304c-1.355,-2.106 -3.568,-3.524 -6.065,-4.511c-3.985,-1.576 -8.684,-2.066 -12.256,-2.176Z" style="fill:#007d7d;"/>
                    <path d="M187.97,99.248c-0.203,0.056 -0.391,0.13 -0.481,0.187c-0.572,0.476 -1.422,0.399 -1.899,-0.172c-0.476,-0.572 -0.399,-1.422 0.172,-1.899c0.536,-0.586 1.812,-1.204 2.908,-1.355c0.833,-0.114 1.536,0.227 2.119,0.663c0.312,0.243 0.502,0.627 0.685,1.035c0.218,0.487 0.25,1.113 0.286,1.448c0.056,0.876 -0.032,1.732 -0.269,2.557c-0.146,0.506 -0.352,0.998 -0.602,1.471c-0.416,0.789 -0.922,1.533 -1.455,2.259c-0.487,0.664 -1.001,1.27 -1.422,1.927c-0.32,0.687 -1.138,0.985 -1.825,0.665c-0.687,-0.32 -0.985,-1.138 -0.665,-1.825c0.503,-1.513 1.243,-3.045 1.806,-4.615c0.122,-0.339 0.229,-0.678 0.333,-1.018c0.133,-0.435 0.283,-0.865 0.309,-1.328Zm0.085,-0.276c0.027,-0.081 0.036,-0.149 -0.031,-0.139c-0.083,0.011 -0.045,0.069 0.031,0.139Zm0.243,0.206c0.017,0.016 0.032,0.03 0.043,0.044c0.084,0.103 0.335,0.264 0.376,0.127c0.055,-0.18 -0.154,-0.209 -0.419,-0.171Z" style="fill:#007d7d;"/>
                    <path d="M197.66,101.59c0.574,-0.473 1.424,-0.39 1.897,0.184c0.473,0.575 0.391,1.425 -0.183,1.898c-1.456,1.404 -2.642,3.005 -3.877,4.596c-0.854,1.102 -1.692,2.218 -2.614,3.264c-1.031,1.169 -2.172,2.231 -3.363,3.241c-0.98,0.771 -2.093,1.699 -3.338,2.167c-1.016,0.382 -2.079,0.574 -3.196,0.253c-0.744,-0.147 -1.228,-0.87 -1.082,-1.613c0.147,-0.744 0.87,-1.229 1.613,-1.082c0.5,0.054 0.919,-0.172 1.327,-0.405c0.868,-0.496 1.562,-1.341 2.206,-2.023c1.016,-1 1.896,-2.115 2.839,-3.18c0.986,-1.115 2.005,-2.2 3.052,-3.258c1.463,-1.478 3.005,-2.845 4.719,-4.042Z" style="fill:#007d7d;"/>
                    <path d="M109.441,110.755c0.141,0.054 0.275,0.133 0.396,0.237c0.872,0.668 1.362,1.534 1.676,2.473c0.386,1.154 0.393,2.465 0.433,3.684c0.009,0.307 -0.326,0.967 -0.021,0.938c0.053,-0.004 -0.001,-0.105 -0.023,-0.153c-0.023,-0.047 -0.074,-0.164 -0.074,-0.164c-0,-0 0.564,0.47 0.867,0.747c0.505,0.458 0.893,1 1.105,1.53c0.252,0.629 0.241,1.289 -0.013,1.982c-0.427,1.163 -1.303,1.559 -2.276,1.621c-1.071,0.067 -2.561,-0.839 -3.005,-1.2c-1.866,-1.581 -3.258,-3.087 -3.866,-4.919c-0.433,-1.306 -0.503,-2.782 -0.042,-4.556c0.25,-0.913 0.646,-1.897 1.134,-2.856c0.671,-1.322 1.48,-2.605 2.086,-3.617c0.64,-1.055 1.236,-2.137 1.887,-3.185c0.459,-0.741 0.937,-1.464 1.472,-2.152c0.425,-0.61 1.266,-0.76 1.876,-0.334c0.611,0.425 0.761,1.266 0.335,1.876c-0.305,0.491 -0.575,0.997 -0.838,1.511c-0.648,1.267 -1.206,2.58 -1.823,3.862c-0.375,0.769 -0.845,1.699 -1.286,2.675Zm-1.039,2.783c-0.028,0.11 -0.052,0.219 -0.074,0.327c-0.262,1.19 -0.119,2.102 0.309,2.913c0.01,0.019 0.02,0.037 0.03,0.056c0.053,-0.718 0.122,-1.466 0.036,-2.179c-0.047,-0.388 -0.117,-0.773 -0.301,-1.117Zm2.937,6.307c0.102,0.095 0.196,0.148 0.22,0.045c0.025,-0.108 -0.085,-0.093 -0.22,-0.045Zm-1.073,1.118c-0.036,0.237 -0.017,0.466 0.132,0.378c0.151,-0.089 0.05,-0.227 -0.132,-0.378Z" style="fill:#007d7d;"/>
                    <path d="M136.674,107.168c-0.382,0.638 -1.211,0.847 -1.849,0.466c-0.639,-0.382 -0.848,-1.211 -0.466,-1.849c1.171,-2.306 2.109,-4.745 2.853,-7.228c0.291,-0.97 0.543,-1.944 0.766,-2.923c0.148,-0.648 0.29,-1.295 0.409,-1.947c0.247,-1.353 0.419,-2.71 0.423,-4.093c0.004,-1.364 -0.085,-2.735 -0.392,-4.124c-0.22,-0.725 0.19,-1.493 0.916,-1.712c0.725,-0.22 1.493,0.19 1.713,0.916c0.9,2.354 1.333,4.742 1.347,7.144c0.009,1.618 -0.172,3.237 -0.551,4.819c-0.369,1.541 -0.93,3.044 -1.604,4.498c-0.984,2.126 -2.228,4.124 -3.565,6.033Z" style="fill:#007d7d;"/>
                    <path d="M189.613,118.757c-0.573,-0.475 -0.652,-1.326 -0.177,-1.899c0.475,-0.572 1.326,-0.651 1.898,-0.176c0.946,0.648 1.755,1.149 2.541,1.633c1.211,0.746 2.364,1.385 3.933,2.191c0.859,0.506 1.807,0.887 2.677,1.396c0.711,0.416 1.375,0.901 1.968,1.478c0.574,0.583 1.216,1.3 1.543,2.122c0.286,0.72 0.457,1.475 0.27,2.26c-0.153,0.625 -0.277,1.046 -0.453,1.4c-0.243,0.491 -0.52,0.842 -0.99,1.577c-0.346,0.674 -1.174,0.941 -1.849,0.595c-0.674,-0.345 -0.941,-1.174 -0.595,-1.848c0.228,-0.577 0.398,-0.911 0.527,-1.264c0.091,-0.248 0.099,-0.509 0.126,-0.953c0.005,-0.063 -0.078,-0.092 -0.102,-0.146c-0.057,-0.13 -0.179,-0.22 -0.275,-0.331c-0.204,-0.237 -0.463,-0.422 -0.689,-0.596c-0.206,-0.162 -0.431,-0.293 -0.652,-0.429c-0.517,-0.317 -1.072,-0.566 -1.614,-0.842c-0.654,-0.333 -1.293,-0.691 -1.903,-1.079c-1.272,-0.883 -2.279,-1.585 -3.231,-2.369c-0.957,-0.787 -1.851,-1.623 -2.953,-2.72Z" style="fill:#007d7d;"/>
                    <path d="M120.36,134.585c-0.236,0.706 -1,1.088 -1.706,0.852c-0.706,-0.235 -1.088,-0.999 -0.852,-1.705c0.272,-1.382 0.448,-2.905 0.872,-4.394c0.178,-0.627 0.41,-1.235 0.694,-1.812c0.201,-0.409 0.437,-0.798 0.7,-1.162c0.351,-0.485 0.725,-0.942 1.165,-1.333c1.037,-0.924 2.216,-1.649 3.718,-1.934c0.719,-0.24 1.498,0.149 1.737,0.868c0.24,0.719 -0.149,1.498 -0.868,1.738c-0.907,0.441 -1.452,1.171 -1.968,1.929c-0.252,0.372 -0.444,0.778 -0.661,1.183c-0.227,0.425 -0.444,0.861 -0.666,1.3c-0.77,1.518 -1.502,3.064 -2.165,4.47Z" style="fill:#007d7d;"/>
                    <path d="M143.541,131.739c0.207,0.24 0.332,0.553 0.332,0.895c-0,0.758 -0.616,1.373 -1.374,1.373c-0.321,0.054 -0.981,-0.211 -1.576,-1.106c-0.452,-0.679 -1.177,-2.393 -1.922,-3.181c-0.269,-0.379 -0.63,-0.638 -0.989,-0.958c-0.484,-0.431 -0.987,-0.898 -1.475,-1.52c-0.531,-0.678 -1.059,-1.466 -1.499,-2.574c-0.378,-0.641 -0.165,-1.468 0.476,-1.846c0.641,-0.378 1.468,-0.164 1.846,0.477c0.681,0.837 1.377,1.272 1.978,1.692c0.613,0.428 1.18,0.749 1.669,1.137c0.459,0.364 0.84,0.788 1.183,1.269c0.299,0.509 0.624,1.175 0.828,1.914c0.249,0.898 0.382,1.836 0.527,2.355c0.007,0.023 -0.001,0.058 -0.004,0.073Zm-0.477,-0.357c-0.188,-0.1 -0.386,-0.121 -0.565,-0.121c0.202,-0 0.393,0.043 0.565,0.121Z" style="fill:#007d7d;"/>
                    <path d="M110.44,112.312c-0.741,0.071 -1.4,-0.473 -1.47,-1.214c-0.071,-0.741 0.473,-1.399 1.214,-1.47c0.728,-0.212 1.452,-0.453 2.204,-0.609c0.616,-0.128 1.216,-0.131 1.785,-0.128c0.437,0.036 0.887,0.125 1.321,0.283c0.388,0.142 0.759,0.338 1.108,0.534c0.266,0.149 0.478,0.341 0.706,0.434l1.634,0.589c0.758,0 1.374,0.616 1.374,1.374c-0,0.758 -0.616,1.373 -1.374,1.373c-0.378,0.076 -0.785,0.106 -1.225,0.137c-0.435,0.032 -0.861,-0.011 -1.283,-0.041c-0.368,-0.039 -0.764,-0.154 -1.194,-0.283c-0.316,-0.095 -0.647,-0.198 -0.974,-0.314c-0.211,-0.076 -0.407,-0.187 -0.615,-0.224c-0.44,-0.122 -0.916,-0.209 -1.424,-0.257c-0.608,-0.058 -1.195,-0.126 -1.787,-0.184Z" style="fill:#007d7d;"/>
                </g>
                <path id="Rider" d="M158.923,26.169c1.319,0.183 2.612,0.533 3.897,0.884c1.29,0.353 2.568,0.756 3.82,1.224c3.357,1.256 -1.525,4.271 -1.68,6.066c-0.093,1.075 1.324,2.226 0.653,3.344c-0.734,1.223 -1.151,0.754 -2.062,1.904c-1.679,2.121 -1.203,2.425 -3.112,4.303c-0.715,0.703 -1.623,-0.611 -2.282,0.179c-1.431,1.717 -1.45,4.323 -0.562,6.308c0.875,1.957 4.306,5.971 5.541,7.668c3.046,4.187 2.576,4.408 5.444,8.735c1.69,2.551 5.571,3.799 7.81,5.525c1.006,0.776 1.278,1.801 0.35,2.817c-2.144,2.346 -4.763,-0.339 -6.52,-1.529c-1.679,-1.139 -4.574,-2.872 -5.99,-4.581c-1.618,-1.954 -2.863,-4.2 -4.495,-6.142c-0.724,-0.86 -4.696,-4.992 -6.074,-2.081c-0.81,1.71 1.453,1.471 1.852,2.727c0.811,2.549 1.111,5.238 1.494,7.885c0.242,1.669 -0.087,2.315 -0.959,3.687c-0.607,0.955 -2.031,1.642 -1.961,2.771c0.093,1.498 4.442,6.133 5.308,7.048c0.443,0.468 1.188,0.709 1.422,1.31c0.365,0.934 0.18,1.998 0.26,2.998c0.365,4.534 0.696,4.546 -0.457,8.927c-0.481,1.827 -2.804,2.026 -3.38,3.789c-2.338,7.162 -2.171,7.178 -4.898,14.21c-0.364,0.94 -0.908,1.885 -0.886,2.893c0.01,0.449 0.579,0.712 0.97,0.932c1.012,0.569 3.183,0.899 3.938,2.06c0.452,0.696 0.015,2.501 -1.042,2.51c-2.084,0.019 -5.005,-0.804 -6.854,-1.214c-2.487,-0.552 -4.15,-0.615 -6.241,-2.139c-1.147,-0.835 0.999,-2.93 1.32,-3.186c0.333,-0.264 1.468,-0.254 1.645,-0.827c0.232,-0.754 -0.161,-1.63 0.129,-2.365c0.553,-1.404 1.688,-2.515 2.332,-3.88c2.336,-4.954 5.155,-10.811 3.808,-16.513c-0.625,-2.644 -4.019,-2.685 -5.856,-3.646c-1.866,-0.975 -1.175,-1.769 -3.083,-2.736c-1.906,-0.966 -2.614,-0.182 -4.487,-1.228c-0.674,-0.377 -1.106,-1.084 -1.718,-1.553c-2.271,-1.742 -5.779,-3.116 -6.247,-6.364c-0.288,-1.998 1.418,-5.166 1.816,-6.579c0.246,-0.875 0.433,-1.788 0.407,-2.697c-0.034,-1.146 -1.214,-2.221 -0.47,-3.385c1.338,-2.09 2.477,-2.579 3.169,-5.073c0.209,-0.754 -0.284,-1.642 0.055,-2.347c0.735,-1.534 1.947,-2.794 3.037,-4.101c2.879,-3.452 5.819,-6.858 8.862,-10.167c0.928,-1.01 2.176,-1.708 3.037,-2.775c1.43,-1.773 -1.359,-4.372 -2.26,-5.31c-0.339,-0.353 -1.099,-0.425 -1.152,-0.911c-0.133,-1.231 0.291,-2.474 0.659,-3.656c0.369,-1.182 0.84,-2.358 1.535,-3.382c0.508,-0.748 2.188,-1.224 2.964,-1.409c1.864,-0.443 5.238,-1.198 7.194,-0.928Z" style="fill:#007d7d;"/>
            </g>
            <g transform="matrix(1.19908,0,0,1.19918,26.824,-197.055)">
                <g transform="matrix(53.3697,0,0,53.3697,169.066,218.175)">
                    <path d="M0.083,-0l0.226,-0c0.144,-0 0.251,-0.062 0.251,-0.197c0,-0.086 -0.048,-0.134 -0.125,-0.15l-0,-0.004c0.058,-0.02 0.091,-0.075 0.091,-0.142c0,-0.12 -0.099,-0.161 -0.234,-0.161l-0.209,0l-0,0.654Zm0.116,-0.384l-0,-0.18l0.085,0c0.085,0 0.128,0.024 0.128,0.088c-0,0.056 -0.039,0.092 -0.13,0.092l-0.083,0Zm-0,0.294l-0,-0.207l0.098,0c0.098,0 0.15,0.03 0.15,0.099c-0,0.073 -0.054,0.108 -0.15,0.108l-0.098,0Z" style="fill:#004547;fill-rule:nonzero;"/>
                </g>
                <g transform="matrix(53.3697,0,0,53.3697,200.928,218.175)">
                    <rect x="0.083" y="-0.654" width="0.116" height="0.654" style="fill:#004547;fill-rule:nonzero;"/>
                </g>
                <g transform="matrix(53.3697,0,0,53.3697,215.978,218.175)">
                    <path d="M0.083,-0l0.116,-0l0,-0.191l0.094,-0.117l0.177,0.308l0.128,-0l-0.235,-0.399l0.201,-0.255l-0.129,0l-0.233,0.297l-0.003,0l-0,-0.297l-0.116,0l-0,0.654Z" style="fill:#004547;fill-rule:nonzero;"/>
                </g>
                <g transform="matrix(53.3697,0,0,53.3697,247.84,218.175)">
                    <path d="M0.083,-0l0.404,-0l-0,-0.098l-0.288,0l0,-0.193l0.235,0l-0,-0.098l-0.235,0l-0,-0.167l0.278,0l-0,-0.098l-0.394,0l-0,0.654Z" style="fill:#004547;fill-rule:nonzero;"/>
                </g>
                <g transform="matrix(53.3697,0,0,53.3697,158.392,271.544)">
                    <path d="M0.144,-0l0.154,-0l0.076,-0.344c0.011,-0.048 0.018,-0.098 0.024,-0.158l0.004,0c0.008,0.06 0.016,0.11 0.026,0.158l0.074,0.344l0.154,-0l0.126,-0.654l-0.118,-0l-0.056,0.33c-0.01,0.069 -0.02,0.138 -0.028,0.214l-0.004,-0c-0.012,-0.076 -0.027,-0.146 -0.042,-0.214l-0.074,-0.33l-0.114,-0l-0.076,0.33c-0.015,0.069 -0.028,0.138 -0.04,0.214l-0.004,-0c-0.008,-0.076 -0.017,-0.144 -0.028,-0.214l-0.056,-0.33l-0.124,-0l0.126,0.654Z" style="fill:#004547;fill-rule:nonzero;"/>
                </g>
                <g transform="matrix(53.3697,0,0,53.3697,201.088,271.544)">
                    <path d="M0.217,-0.348c0.021,-0.069 0.04,-0.143 0.058,-0.216l0.004,0c0.019,0.072 0.038,0.147 0.059,0.216l0.023,0.08l-0.167,0l0.023,-0.08Zm-0.219,0.348l0.118,0l0.051,-0.177l0.22,0l0.051,0.177l0.122,0l-0.213,-0.654l-0.136,0l-0.213,0.654Z" style="fill:#004547;fill-rule:nonzero;"/>
                </g>
                <g transform="matrix(53.3697,0,0,53.3697,230.868,271.544)">
                    <path d="M0.083,-0l0.388,-0l0,-0.098l-0.272,0l0,-0.556l-0.116,0l0,0.654Z" style="fill:#004547;fill-rule:nonzero;"/>
                </g>
                <g transform="matrix(53.3697,0,0,53.3697,257.66,271.544)">
                    <path d="M0.083,-0l0.116,-0l0,-0.191l0.094,-0.117l0.177,0.308l0.128,-0l-0.235,-0.399l0.201,-0.255l-0.129,0l-0.233,0.297l-0.003,0l-0,-0.297l-0.116,0l-0,0.654Z" style="fill:#004547;fill-rule:nonzero;"/>
                </g>
                <g transform="matrix(53.3697,0,0,53.3697,300.195,271.544)">
                    <path d="M0.083,-0l0.388,-0l0,-0.098l-0.272,0l0,-0.556l-0.116,0l0,0.654Z" style="fill:#004547;fill-rule:nonzero;"/>
                </g>
                <g transform="matrix(53.3697,0,0,53.3697,326.987,271.544)">
                    <rect x="0.083" y="-0.654" width="0.116" height="0.654" style="fill:#004547;fill-rule:nonzero;"/>
                </g>
                <g transform="matrix(53.3697,0,0,53.3697,342.037,271.544)">
                    <path d="M0.083,-0l0.116,-0l0,-0.273l0.238,0l-0,-0.098l-0.238,0l-0,-0.185l0.279,0l-0,-0.098l-0.395,0l-0,0.654Z" style="fill:#004547;fill-rule:nonzero;"/>
                </g>
                <g transform="matrix(53.3697,0,0,53.3697,369.256,271.544)">
                    <path d="M0.083,-0l0.404,-0l-0,-0.098l-0.288,0l0,-0.193l0.235,0l-0,-0.098l-0.235,0l-0,-0.167l0.278,0l-0,-0.098l-0.394,0l-0,0.654Z" style="fill:#004547;fill-rule:nonzero;"/>
                </g>
            </g>
        </g>
    </g>
</svg>
