<?xml version="1.0" encoding="UTF-8" standalone="no"?>
<!DOCTYPE svg PUBLIC "-//W3C//DTD SVG 1.1//EN" "http://www.w3.org/Graphics/SVG/1.1/DTD/svg11.dtd">
<svg width="100%" height="100%" viewBox="0 0 240 240" version="1.1" xmlns="http://www.w3.org/2000/svg" xmlns:xlink="http://www.w3.org/1999/xlink" xml:space="preserve" xmlns:serif="http://www.serif.com/" style="fill-rule:evenodd;clip-rule:evenodd;stroke-linejoin:round;stroke-miterlimit:2;">
    <rect id="Square" x="0" y="0" width="240" height="240" style="fill:none;"/>
    <clipPath id="_clip1">
        <rect id="Square1" serif:id="Square" x="0" y="0" width="240" height="240"/>
    </clipPath>
    <g clip-path="url(#_clip1)">
        <rect x="0" y="-0" width="240" height="240" style="fill:#fff;"/>
        <g>
            <g>
                <g id="Paper">
                    <path d="M79.891,162.797c0.542,-0.182 1.13,0.109 1.312,0.651c0.182,0.542 -0.11,1.129 -0.651,1.311c-2.726,0.982 -5.529,1.641 -8.369,2.086c-4.227,0.663 -8.535,0.835 -12.802,0.843c-1.748,0.006 -3.949,-0.023 -6.086,-0.166c-1.466,-0.098 -2.901,-0.256 -4.147,-0.484c-3.192,-0.59 -6.503,-1.331 -9.74,-2.296c-3.301,-0.985 -6.516,-2.211 -9.46,-3.7c-3.548,-1.836 -7.049,-4.265 -10.104,-7.18c-3.051,-2.911 -5.652,-6.298 -7.549,-9.915c-0.75,-1.449 -1.421,-3.114 -1.991,-4.835c-0.835,-2.52 -1.475,-5.151 -1.951,-7.32c-1.292,-5.931 -2.106,-11.547 -2.536,-17.195c-0.428,-5.631 -0.481,-11.285 -0.249,-17.304c0.01,-0.591 0.499,-1.063 1.09,-1.053c0.591,0.01 1.062,0.499 1.052,1.09c0.024,5.923 0.309,11.474 0.968,16.988c0.654,5.478 1.684,10.91 3.192,16.628c0.534,2.039 1.248,4.508 2.124,6.871c0.555,1.499 1.178,2.953 1.877,4.21c1.758,3.201 4.191,6.134 6.928,8.728c2.778,2.633 5.879,4.919 9.074,6.624c2.696,1.471 5.658,2.684 8.696,3.709c3.078,1.038 6.227,1.89 9.272,2.58c1.122,0.256 2.418,0.451 3.746,0.6c2.052,0.231 4.17,0.36 5.854,0.433c4.127,0.175 8.302,0.202 12.418,-0.262c2.716,-0.306 5.404,-0.819 8.032,-1.642Z" style="fill:#007d7d;"/>
                    <path d="M28.477,100.009c0.024,-0.571 0.507,-1.015 1.078,-0.991c0.571,0.023 1.015,0.506 0.992,1.077c0.003,0.576 1.26,5.134 2.594,9.681c1.325,4.517 2.759,8.984 3.014,9.489c0.468,1.091 -0.037,2.356 -1.127,2.825c-1.09,0.468 -2.356,-0.037 -2.824,-1.127c-0.234,-0.648 -1.42,-6.974 -2.399,-12.524c-0.739,-4.185 -1.374,-7.905 -1.328,-8.43Z" style="fill:#007d7d;"/>
                    <path d="M62.537,90.165c-0.207,-0.826 0.296,-1.664 1.122,-1.871c0.826,-0.207 1.664,0.296 1.871,1.122c1.411,4.955 2.459,9.883 3.277,14.861c0.816,4.96 1.39,9.957 1.849,15.073c0.079,1.377 -0.975,2.56 -2.352,2.64c-1.378,0.079 -2.561,-0.975 -2.64,-2.352c-0.129,-5.024 -0.377,-9.939 -0.865,-14.832c-0.486,-4.887 -1.199,-9.739 -2.262,-14.641Z" style="fill:#007d7d;"/>
                    <path d="M214.585,31.085c0.536,0.196 0.813,0.792 0.616,1.328c-0.196,0.537 -0.791,0.813 -1.328,0.617c-4.925,-1.77 -9.871,-3.477 -14.902,-4.879c-3.333,-0.929 -6.702,-1.723 -10.127,-2.314c-8.003,-1.38 -16.009,-1.974 -24.009,-1.866c-8.002,0.108 -15.996,0.922 -23.974,2.351c-3.262,0.586 -6.646,1.347 -9.955,2.34c-3.271,0.983 -6.468,2.195 -9.396,3.7c-4.136,2.125 -7.926,4.942 -11.392,8.127c-3.507,3.223 -6.679,6.828 -9.538,10.492c-2.014,2.584 -4.159,5.586 -5.851,8.767c-1.086,2.042 -1.981,4.158 -2.516,6.282c-0.927,3.667 -1.824,7.679 -1.897,11.642c-0.047,2.494 0.24,4.969 1.094,7.308c0.601,1.651 1.61,3.032 2.767,4.307c1.989,2.193 4.405,4.08 6.39,6.193c1.589,1.692 2.605,3.646 2.953,5.687c0.358,2.104 0.016,4.314 -1.206,6.475c-0.348,0.613 -0.745,1.203 -1.181,1.762c-0.433,0.553 -0.904,1.076 -1.406,1.562c-0.562,0.546 -1.166,1.049 -1.796,1.519c-0.601,0.448 -1.226,0.867 -1.86,1.264c-0.717,0.451 -1.457,0.866 -2.21,1.256c-0.734,0.38 -1.481,0.735 -2.232,1.075c-2.027,0.911 -4.217,1.714 -6.449,2.424c-3.309,1.051 -6.71,1.9 -9.791,2.618c-7.863,1.807 -15.633,3.001 -23.395,3.138c-7.813,0.137 -15.618,-0.789 -23.497,-3.22c-6.454,-1.991 -13.649,-5.879 -18.205,-11.425c-3.178,-3.87 -5.104,-8.529 -4.716,-13.918c0.171,-2.415 0.919,-4.531 2.062,-6.413c1.643,-2.706 4.115,-4.926 6.831,-6.833c4.783,-3.366 10.266,-5.179 15.958,-5.902c5.568,-0.707 11.335,-0.372 16.822,0.548c3.228,0.539 7.419,1.473 10.907,3.242c2.561,1.298 4.743,3.05 6.024,5.359c1.408,2.538 1.378,5.193 0.481,7.675c-1.232,3.409 -4.165,6.481 -6.952,8.287c-2.859,1.855 -6.146,3.17 -9.611,3.942c-3.342,0.744 -6.849,0.984 -10.292,0.723c-1.956,-0.149 -4.239,-0.625 -6.037,-1.711c-1.353,-0.818 -2.442,-1.967 -3.019,-3.534c-0.574,-1.559 -0.421,-2.988 0.149,-4.255c0.776,-1.724 2.4,-3.139 3.91,-4.082c1.239,-0.774 3.286,-1.495 5.387,-1.907c2.164,-0.425 4.378,-0.507 5.837,-0.102c0.762,0.211 1.209,1.001 0.998,1.763c-0.212,0.762 -1.002,1.208 -1.763,0.997c-1.131,-0.313 -2.844,-0.176 -4.52,0.154c-1.719,0.337 -3.406,0.893 -4.42,1.527c-0.907,0.567 -1.9,1.339 -2.525,2.305c-0.484,0.746 -0.723,1.623 -0.36,2.607c0.436,1.182 1.398,1.927 2.499,2.429c1.29,0.588 2.78,0.844 4.081,0.942c3.161,0.239 6.381,0.019 9.448,-0.665c3.125,-0.698 6.091,-1.877 8.669,-3.551c1.94,-1.26 3.982,-3.239 5.2,-5.515c1.11,-2.073 1.533,-4.411 0.304,-6.62c-1.013,-1.821 -2.781,-3.15 -4.803,-4.172c-3.219,-1.629 -7.093,-2.461 -10.072,-2.955c-5.209,-0.861 -10.683,-1.178 -15.965,-0.493c-5.208,0.676 -10.229,2.329 -14.599,5.424c-1.969,1.397 -3.809,2.961 -5.19,4.818c-1.307,1.757 -2.189,3.782 -2.339,6.174c-0.276,4.527 1.414,8.412 4.123,11.626c4.204,4.989 10.83,8.379 16.722,10.106c7.523,2.204 14.953,2.969 22.378,2.737c7.485,-0.235 14.963,-1.489 22.524,-3.33c2.975,-0.715 6.26,-1.559 9.454,-2.596c2.069,-0.672 4.1,-1.425 5.978,-2.282c0.683,-0.31 1.362,-0.632 2.029,-0.978c0.648,-0.335 1.285,-0.691 1.902,-1.079c0.536,-0.336 1.065,-0.689 1.574,-1.069c0.481,-0.359 0.944,-0.742 1.374,-1.159c0.361,-0.35 0.7,-0.725 1.011,-1.123c0.306,-0.393 0.586,-0.807 0.831,-1.238c0.694,-1.216 0.922,-2.457 0.726,-3.645c-0.207,-1.26 -0.863,-2.45 -1.836,-3.501c-2.349,-2.536 -5.292,-4.77 -7.443,-7.542c-1.044,-1.345 -1.915,-2.807 -2.498,-4.455c-0.997,-2.825 -1.337,-5.8 -1.249,-8.8c0.124,-4.268 1.11,-8.584 2.15,-12.524c0.641,-2.409 1.68,-4.809 2.946,-7.117c1.841,-3.353 4.154,-6.514 6.33,-9.229c3.026,-3.776 6.382,-7.483 10.078,-10.794c3.733,-3.344 7.809,-6.285 12.241,-8.493c3.12,-1.553 6.519,-2.798 9.996,-3.791c3.437,-0.982 6.948,-1.72 10.331,-2.279c8.151,-1.35 16.311,-2.069 24.468,-2.073c8.156,-0.004 16.308,0.703 24.448,2.213c3.495,0.647 6.93,1.502 10.326,2.493c5.065,1.478 10.042,3.258 14.995,5.104Z" style="fill:#007d7d;"/>
                </g>
                <path id="Ground" d="M233.387,165.659c-0.157,-1.965 -4.149,-6.448 -11.656,-8.726c-4.188,-1.271 -11.332,-0.429 -15.582,-0.141c-5.658,0.384 -11.363,-0.487 -17.021,-0.096c-7.269,0.502 -14.42,2.065 -21.692,2.53c-1.639,0.104 -3.071,-2.381 -4.323,-2.811c-2.589,-0.889 -11.517,-2.418 -14.235,-2.627c-4.493,-0.345 -7.378,2.6 -11.214,3.954c-3.207,1.133 -7.307,-0.002 -10.493,-0.501c-6.745,-1.057 -14.201,-3.119 -21.111,-3.174c-4.936,-0.04 -10.481,1.691 -14.914,3.467c-0.211,0.084 -7.325,2.583 -6.219,4.983c1.023,2.221 6.174,1.409 9.265,2.099c3.911,0.873 9.506,2.603 14.201,3.14c4.621,0.529 9.207,-0.512 13.971,0.082c3.824,0.477 7.185,2.823 10.754,3.975c2.896,0.935 4.255,1.113 7.307,0.923c5.519,-0.343 5.328,-1.327 11.145,-1.419c5.219,-0.083 10.425,1.554 15.66,1.119c4.399,-0.366 8.13,-2.994 12.489,-3.354c9.531,-0.787 19.194,1.477 28.756,1.195c7.153,-0.211 7.227,-1.196 14.201,-1.557c3.399,-0.176 10.869,-1.097 10.711,-3.061Z" style="fill:#007d7d;"/>
                <g id="Drawing">
                    <g id="Bike">
                        <path d="M171.083,108.343c-1.474,-0.529 -2.939,-1.089 -4.477,-1.344c-1.647,-0.294 -3.453,-0.432 -5.266,-0.448c-1.848,-0.016 -3.695,0.077 -5.382,0.277c-0.735,0.119 -1.428,-0.38 -1.547,-1.115c-0.119,-0.734 0.381,-1.427 1.115,-1.546c1.781,-0.368 3.741,-0.648 5.714,-0.79c2.006,-0.144 4.017,-0.126 5.865,0.063c0.657,0.071 1.305,0.188 1.949,0.336c2.235,0.514 4.389,1.446 6.663,1.752c0.785,0.12 1.423,0.696 1.624,1.464c0.2,0.769 -0.075,1.583 -0.701,2.072c-1.227,0.947 -2.456,1.891 -3.712,2.799c-1.876,1.356 -3.793,2.648 -5.699,3.96c-0.906,0.611 -1.793,1.256 -2.713,1.849c-0.657,0.423 -1.325,0.824 -2.024,1.173c-0.58,0.289 -1.179,0.529 -1.795,0.732c-0.818,0.269 -1.655,0.484 -2.472,0.752c-0.709,0.269 -1.503,-0.088 -1.771,-0.797c-0.269,-0.709 0.088,-1.502 0.797,-1.771c0.789,-0.341 1.603,-0.632 2.395,-0.971c0.462,-0.197 0.912,-0.417 1.342,-0.678c0.569,-0.344 1.105,-0.736 1.636,-1.14c0.854,-0.65 1.676,-1.343 2.518,-2.007l5.941,-4.622Z" style="fill:#007d7d;"/>
                        <path d="M178.804,133.92c0.323,-0.131 0.695,-0.14 1.041,0.004c0.7,0.29 1.034,1.094 0.744,1.794c-0.699,1.916 -1.918,1.833 -2.642,1.585c-0.452,-0.156 -0.951,-0.628 -1.348,-1.306c-0.488,-0.833 -0.842,-2.073 -0.897,-2.255c-0.663,-2.228 -1.017,-3.622 -1.283,-5.037c-0.262,-1.395 -0.425,-2.807 -0.719,-5.075c-0.179,-1.571 -0.412,-3.344 -0.592,-5.242c-0.237,-2.495 -0.43,-5.198 -0.584,-7.902c-0.273,-4.789 -0.379,-9.576 -0.35,-13.26c-0.023,-0.743 0.561,-1.366 1.305,-1.389c0.744,-0.024 1.366,0.561 1.39,1.305c0.223,3.091 0.678,6.951 1.133,10.94c0.278,2.445 0.581,4.929 0.821,7.311c0.29,2.869 0.485,5.585 0.689,7.863c0.147,2.199 0.227,3.564 0.384,4.922c0.155,1.339 0.375,2.666 0.829,4.793c0.013,0.065 0.025,0.509 0.079,0.949Zm0.152,0.703c0.078,0.194 0.185,0.29 0.333,0.184c0.137,-0.098 -0.128,-0.15 -0.333,-0.184Z" style="fill:#007d7d;"/>
                        <path d="M176.472,93.217c0.584,-0.461 1.432,-0.362 1.894,0.221c0.461,0.584 0.362,1.432 -0.222,1.894c-0.846,0.831 -1.101,1.256 -1.587,1.715c-0.346,0.326 -0.796,0.631 -1.531,1.076c-0.376,0.222 -0.782,0.333 -1.193,0.433c-0.478,0.118 -0.977,0.143 -1.474,0.183c-0.273,0.022 -0.548,0.024 -0.786,0.183c-0.281,0.169 -0.329,0.314 -0.426,0.449c-0.113,0.158 -0.235,0.321 -0.398,0.486c-0.235,0.237 -0.533,0.507 -1.007,0.781c-0.485,0.272 -0.887,0.464 -1.271,0.581c-0.395,0.12 -0.745,0.197 -1.123,0.26c-0.302,0.05 -0.628,0.07 -1.047,0.223l-2.686,1.155c-0.699,0.295 -1.505,-0.033 -1.8,-0.731c-0.294,-0.699 0.034,-1.505 0.732,-1.799l2.32,-1.661c0.857,-0.498 1.445,-0.615 2.082,-0.862c0.214,-0.083 0.418,-0.22 0.69,-0.423c0.31,-0.216 0.331,-0.406 0.44,-0.567c0.115,-0.17 0.248,-0.339 0.42,-0.515c0.235,-0.241 0.547,-0.501 1.027,-0.777c0.609,-0.334 1.234,-0.526 1.89,-0.567c0.412,-0.026 0.83,-0.011 1.249,0.01c0.288,0.014 0.577,0.121 0.853,0.014c0.514,-0.187 0.841,-0.304 1.099,-0.463c0.551,-0.339 0.882,-0.686 1.855,-1.299Z" style="fill:#007d7d;"/>
                        <path d="M175.454,110.314l-0.061,0.052c0.839,-0.382 1.757,-0.63 2.701,-0.792c1.304,-0.224 2.66,-0.273 3.899,-0.3c4.094,-0.085 8.194,0.736 11.658,2.565c3.613,1.908 6.529,4.916 8.102,9.134c0.605,1.625 0.968,3.135 1.213,4.652c0.343,2.13 0.438,4.274 0.658,6.812c0.163,1.893 0.326,3.985 0.3,6.038c-0.019,1.454 -0.136,2.887 -0.398,4.226c-0.507,2.573 -1.832,5.015 -3.618,7.18c-2.514,3.045 -5.947,5.531 -9.064,7.084c-5.532,2.715 -12.939,2.487 -19.277,-0.117c-6.452,-2.65 -11.731,-7.71 -12.971,-14.187c-0.408,-2.158 -0.699,-4.518 -0.801,-6.884c-0.103,-2.392 -0.018,-4.79 0.319,-6.995c0.689,-4.469 3.076,-8.434 6.339,-11.621c3.157,-3.084 7.113,-5.445 11.001,-6.847Zm1.026,2.519l-0.061,0.053c-3.486,1.357 -7.012,3.579 -9.8,6.439c-2.693,2.763 -4.688,6.135 -5.181,9.929c-0.263,2.002 -0.287,4.173 -0.149,6.337c0.139,2.189 0.45,4.369 0.868,6.36c1.092,5.262 5.601,9.163 10.879,11.273c5.298,2.117 11.452,2.452 16.051,0.175c2.256,-1.101 4.707,-2.766 6.732,-4.804c1.918,-1.929 3.476,-4.186 3.996,-6.651c0.237,-1.122 0.346,-2.326 0.382,-3.547c0.057,-1.93 -0.064,-3.9 -0.185,-5.682c-0.165,-2.447 -0.213,-4.513 -0.5,-6.57c-0.183,-1.309 -0.462,-2.615 -0.951,-4.023c-1.195,-3.443 -3.519,-5.914 -6.406,-7.527c-2.989,-1.67 -6.559,-2.452 -10.137,-2.466c-1.109,-0.005 -2.322,0.001 -3.492,0.171c-0.712,0.103 -1.409,0.262 -2.046,0.533Z" style="fill:#007d7d;"/>
                        <path d="M170.487,130.755c0.74,0.077 1.278,0.741 1.201,1.481c-0.077,0.74 -0.741,1.278 -1.481,1.201c-0.89,0.07 -1.754,0.207 -2.675,0.237c-0.629,0.021 -1.257,0.009 -1.878,-0.085c-0.488,-0.074 -0.966,-0.201 -1.425,-0.373c-1.14,-0.428 -2.162,-1.002 -3.096,-1.806c-0.651,-0.387 -0.865,-1.231 -0.477,-1.882c0.388,-0.652 1.232,-0.865 1.883,-0.477c0.873,0.333 1.762,0.354 2.681,0.458c0.31,0.036 0.619,0.063 0.928,0.113c0.318,0.053 0.633,0.122 0.947,0.198c1.168,0.283 2.272,0.623 3.392,0.935Z" style="fill:#007d7d;"/>
                        <path d="M167.886,151.057c-0.407,0.623 -1.243,0.798 -1.866,0.391c-0.623,-0.407 -0.798,-1.243 -0.391,-1.866c0.319,-0.793 0.594,-1.58 0.992,-2.366c0.274,-0.54 0.586,-1.056 0.967,-1.523c0.301,-0.369 0.644,-0.7 1.02,-0.985c0.933,-0.708 1.926,-1.234 3.084,-1.531c0.687,-0.32 1.505,-0.023 1.825,0.664c0.321,0.687 0.023,1.505 -0.664,1.826c-0.471,0.349 -0.773,0.806 -1.153,1.234c-0.382,0.43 -0.683,0.914 -1.057,1.36c-0.318,0.38 -0.679,0.717 -1.023,1.077c-0.579,0.607 -1.164,1.138 -1.734,1.719Z" style="fill:#007d7d;"/>
                        <path d="M180.185,143.869c-0.076,-0.74 0.462,-1.403 1.202,-1.48c0.741,-0.076 1.403,0.463 1.48,1.203l0.497,2.9c0.136,1.037 0.23,2.215 0.402,3.361c0.087,0.579 0.187,1.147 0.417,1.652c0.283,0.797 0.695,1.573 1.317,2.064c0.537,0.423 1.155,0.765 1.934,0.558c0.707,-0.272 1.503,0.082 1.774,0.789c0.272,0.708 -0.082,1.503 -0.79,1.775c-1.369,0.708 -2.709,0.636 -3.93,0.232c-1.701,-0.562 -3.063,-2.12 -3.954,-3.844c-0.359,-0.877 -0.586,-1.842 -0.636,-2.841c-0.06,-1.226 0.112,-2.475 0.147,-3.581l0.14,-2.788Z" style="fill:#007d7d;"/>
                        <path d="M123.308,131.718l4.134,-0.511l3.362,-0.821c0.941,-0.188 1.729,-0.264 2.531,-0.163c0.575,0.073 1.155,0.252 1.796,0.562c0.561,0.273 1.518,1.393 1.629,2.402c0.08,0.732 -0.164,1.411 -0.782,1.964c-0.459,0.412 -1.01,0.674 -1.604,0.848c-0.885,0.259 -1.916,0.226 -2.717,0.322l-7.966,0.991c-0.603,0.059 -1.843,0.048 -2.825,-0.151c-0.713,-0.145 -1.313,-0.417 -1.7,-0.713c-0.876,-0.668 -1.192,-1.467 -1.254,-2.264c-0.067,-0.854 0.292,-1.784 0.699,-2.523c0.511,-0.905 1.428,-2.039 2.055,-3.233c0.251,-0.478 0.492,-0.951 0.462,-1.433c-0.114,-1.964 -0.524,-3.904 -0.718,-5.861c-0.053,-0.539 -0.092,-1.08 -0.107,-1.622c-0.011,-0.452 -0.001,-0.904 0.029,-1.355c0.103,-1.541 0.432,-3.073 0.427,-4.619c0,-0.841 -0.447,-1.642 -0.577,-2.468c-0.055,-0.356 -0.086,-0.712 -0.059,-1.073c0.093,-1.239 0.965,-2.509 2.417,-3.503c2.324,-1.588 6.055,-2.687 6.685,-2.925c0.689,-0.281 1.477,0.049 1.759,0.738c0.281,0.688 -0.049,1.476 -0.738,1.758c-0.436,0.193 -2.528,0.93 -4.415,1.975c-0.788,0.436 -1.535,0.931 -2.063,1.467c-0.213,0.216 -0.406,0.413 -0.412,0.65c-0.007,0.281 0.098,0.545 0.189,0.814c0.161,0.484 0.349,0.966 0.473,1.456c0.086,0.337 0.135,0.679 0.152,1.025c0.078,1.622 -0.178,3.247 -0.216,4.869c-0.008,0.341 -0.002,0.682 0.021,1.023c0.029,0.456 0.081,0.909 0.141,1.362c0.266,2.005 0.734,3.989 0.911,6.005c0.079,0.919 -0.118,1.868 -0.498,2.8c-0.31,0.759 -0.765,1.507 -1.221,2.207Zm10.07,1.985c0.001,0.001 0.001,0.002 0.002,0.003c0.035,0.077 0.154,0.076 0.196,0.098c-0.068,-0.036 -0.133,-0.07 -0.198,-0.101Z" style="fill:#007d7d;"/>
                        <path d="M122.984,108.511l0.195,-0.036c3.865,0.02 8.954,0.45 13.303,2.048c3.172,1.165 5.94,2.966 7.709,5.576c3.012,4.458 4.848,9.568 5.37,14.788c0.528,5.284 -0.306,10.675 -2.598,15.631c-0.658,1.416 -1.792,2.736 -3.134,3.901c-1.779,1.545 -3.928,2.824 -5.541,3.763c-1.581,0.916 -2.855,1.558 -4.189,2.025c-1.357,0.476 -2.777,0.771 -4.638,0.965c-3.766,0.378 -7.998,0.368 -11.868,-0.626c-2.741,-0.704 -5.302,-1.894 -7.431,-3.734c-5.378,-4.677 -7.8,-11.654 -7.564,-18.665c0.231,-6.878 2.999,-13.755 7.827,-18.364c2.067,-1.968 4.302,-3.951 6.822,-5.35c1.765,-0.979 3.664,-1.684 5.737,-1.922Zm0.146,2.71l0.195,-0.036c-1.698,0.24 -3.239,0.87 -4.669,1.712c-2.272,1.338 -4.255,3.221 -6.099,5.069c-4.14,4.137 -6.389,10.229 -6.47,16.263c-0.079,5.917 1.956,11.807 6.561,15.672c2.128,1.797 4.8,2.733 7.585,3.187c2.946,0.481 6.025,0.412 8.816,0.114c1.498,-0.155 2.644,-0.381 3.739,-0.761c1.121,-0.388 2.189,-0.932 3.52,-1.695c1.444,-0.823 3.375,-1.933 4.975,-3.291c0.918,-0.78 1.737,-1.629 2.195,-2.583c2.08,-4.309 2.865,-9.022 2.49,-13.66c-0.377,-4.669 -1.913,-9.266 -4.517,-13.304c-1.355,-2.106 -3.568,-3.524 -6.065,-4.511c-3.985,-1.576 -8.684,-2.066 -12.256,-2.176Z" style="fill:#007d7d;"/>
                        <path d="M183.795,117.442c-0.204,0.057 -0.392,0.13 -0.482,0.187c-0.571,0.476 -1.422,0.399 -1.899,-0.172c-0.476,-0.572 -0.399,-1.422 0.172,-1.899c0.536,-0.586 1.812,-1.204 2.908,-1.355c0.833,-0.114 1.536,0.227 2.119,0.664c0.312,0.242 0.502,0.626 0.685,1.034c0.218,0.487 0.25,1.113 0.286,1.448c0.056,0.876 -0.032,1.733 -0.269,2.557c-0.146,0.507 -0.352,0.998 -0.601,1.471c-0.417,0.79 -0.923,1.534 -1.456,2.259c-0.487,0.664 -1.001,1.271 -1.422,1.928c-0.32,0.687 -1.138,0.984 -1.825,0.664c-0.687,-0.32 -0.985,-1.138 -0.665,-1.825c0.504,-1.512 1.243,-3.045 1.806,-4.615c0.122,-0.339 0.229,-0.678 0.333,-1.018c0.133,-0.435 0.283,-0.865 0.31,-1.328Zm0.084,-0.276c0.027,-0.081 0.036,-0.149 -0.031,-0.139c-0.083,0.011 -0.045,0.069 0.031,0.139Zm0.243,0.206c0.017,0.016 0.032,0.031 0.043,0.044c0.084,0.103 0.335,0.264 0.377,0.127c0.054,-0.18 -0.155,-0.209 -0.42,-0.171Z" style="fill:#007d7d;"/>
                        <path d="M193.484,119.785c0.574,-0.473 1.424,-0.391 1.897,0.183c0.473,0.575 0.391,1.425 -0.183,1.898c-1.456,1.404 -2.642,3.006 -3.876,4.596c-0.855,1.102 -1.692,2.218 -2.615,3.264c-1.031,1.169 -2.172,2.231 -3.363,3.241c-0.98,0.771 -2.093,1.699 -3.338,2.167c-1.016,0.383 -2.079,0.574 -3.196,0.253c-0.744,-0.147 -1.228,-0.87 -1.082,-1.613c0.147,-0.744 0.87,-1.229 1.614,-1.082c0.499,0.055 0.918,-0.172 1.326,-0.405c0.868,-0.496 1.562,-1.341 2.206,-2.023c1.016,-1 1.896,-2.115 2.839,-3.18c0.987,-1.115 2.005,-2.2 3.052,-3.258c1.463,-1.478 3.005,-2.844 4.719,-4.041Z" style="fill:#007d7d;"/>
                        <path d="M105.265,128.949c0.141,0.055 0.275,0.133 0.396,0.237c0.873,0.668 1.362,1.534 1.676,2.473c0.386,1.154 0.393,2.465 0.433,3.684c0.009,0.307 -0.326,0.967 -0.021,0.939c0.053,-0.005 -0,-0.106 -0.023,-0.154c-0.023,-0.047 -0.074,-0.164 -0.074,-0.164c-0,-0 0.564,0.471 0.868,0.747c0.504,0.459 0.892,1 1.104,1.53c0.252,0.629 0.242,1.289 -0.013,1.982c-0.427,1.164 -1.303,1.559 -2.276,1.621c-1.07,0.067 -2.561,-0.839 -3.005,-1.2c-1.866,-1.581 -3.258,-3.087 -3.866,-4.919c-0.433,-1.306 -0.503,-2.781 -0.042,-4.556c0.25,-0.912 0.646,-1.897 1.134,-2.856c0.671,-1.321 1.48,-2.605 2.087,-3.617c0.64,-1.055 1.235,-2.136 1.886,-3.185c0.459,-0.741 0.937,-1.464 1.472,-2.152c0.425,-0.61 1.266,-0.76 1.877,-0.334c0.61,0.425 0.76,1.266 0.334,1.877c-0.305,0.49 -0.575,0.997 -0.838,1.51c-0.648,1.267 -1.206,2.58 -1.823,3.863c-0.375,0.768 -0.845,1.699 -1.286,2.674Zm-1.039,2.783c-0.027,0.111 -0.052,0.22 -0.074,0.327c-0.262,1.191 -0.119,2.102 0.309,2.913c0.01,0.019 0.02,0.037 0.03,0.056c0.053,-0.718 0.122,-1.466 0.036,-2.179c-0.046,-0.388 -0.117,-0.773 -0.301,-1.117Zm2.937,6.307c0.102,0.095 0.196,0.148 0.22,0.045c0.025,-0.108 -0.085,-0.093 -0.22,-0.045Zm-1.072,1.118c-0.037,0.237 -0.018,0.466 0.131,0.378c0.151,-0.089 0.05,-0.227 -0.131,-0.378Z" style="fill:#007d7d;"/>
                        <path d="M132.498,125.362c-0.382,0.639 -1.21,0.847 -1.849,0.466c-0.639,-0.382 -0.848,-1.21 -0.466,-1.849c1.171,-2.306 2.109,-4.745 2.853,-7.228c0.291,-0.97 0.543,-1.944 0.766,-2.923c0.148,-0.648 0.291,-1.295 0.409,-1.946c0.247,-1.354 0.419,-2.711 0.423,-4.094c0.004,-1.364 -0.085,-2.735 -0.392,-4.124c-0.22,-0.725 0.19,-1.492 0.916,-1.712c0.725,-0.22 1.493,0.19 1.713,0.916c0.9,2.354 1.333,4.742 1.347,7.144c0.009,1.618 -0.172,3.237 -0.55,4.819c-0.37,1.542 -0.931,3.044 -1.605,4.498c-0.984,2.126 -2.228,4.124 -3.565,6.033Z" style="fill:#007d7d;"/>
                        <path d="M185.437,136.951c-0.573,-0.475 -0.652,-1.326 -0.177,-1.898c0.475,-0.573 1.326,-0.652 1.898,-0.177c0.946,0.648 1.755,1.149 2.541,1.634c1.211,0.745 2.364,1.384 3.933,2.19c0.859,0.506 1.807,0.887 2.677,1.396c0.711,0.417 1.375,0.901 1.968,1.478c0.574,0.583 1.216,1.3 1.543,2.122c0.286,0.72 0.457,1.475 0.27,2.26c-0.153,0.625 -0.277,1.046 -0.453,1.4c-0.243,0.492 -0.52,0.842 -0.99,1.577c-0.346,0.674 -1.174,0.941 -1.848,0.595c-0.675,-0.345 -0.942,-1.174 -0.596,-1.848c0.228,-0.577 0.398,-0.911 0.527,-1.264c0.091,-0.247 0.099,-0.509 0.127,-0.953c0.004,-0.063 -0.079,-0.091 -0.103,-0.146c-0.057,-0.13 -0.179,-0.22 -0.275,-0.331c-0.204,-0.237 -0.463,-0.422 -0.689,-0.596c-0.206,-0.162 -0.43,-0.293 -0.652,-0.429c-0.517,-0.317 -1.072,-0.566 -1.614,-0.842c-0.654,-0.333 -1.293,-0.691 -1.903,-1.079c-1.272,-0.882 -2.279,-1.585 -3.231,-2.368c-0.957,-0.787 -1.851,-1.624 -2.953,-2.721Z" style="fill:#007d7d;"/>
                        <path d="M116.184,152.779c-0.236,0.706 -1,1.088 -1.706,0.852c-0.705,-0.235 -1.087,-0.999 -0.852,-1.705c0.272,-1.382 0.448,-2.905 0.872,-4.394c0.178,-0.627 0.41,-1.235 0.694,-1.811c0.201,-0.41 0.437,-0.799 0.7,-1.163c0.351,-0.485 0.725,-0.942 1.165,-1.333c1.037,-0.924 2.216,-1.648 3.718,-1.934c0.719,-0.24 1.498,0.149 1.737,0.868c0.24,0.72 -0.149,1.498 -0.868,1.738c-0.907,0.442 -1.452,1.171 -1.967,1.929c-0.253,0.372 -0.445,0.778 -0.662,1.183c-0.227,0.425 -0.444,0.861 -0.666,1.3c-0.77,1.518 -1.502,3.064 -2.165,4.47Z" style="fill:#007d7d;"/>
                        <path d="M139.365,149.933c0.207,0.24 0.332,0.553 0.332,0.895c-0,0.758 -0.616,1.374 -1.374,1.374c-0.321,0.053 -0.981,-0.212 -1.576,-1.107c-0.452,-0.679 -1.177,-2.393 -1.922,-3.181c-0.268,-0.379 -0.63,-0.638 -0.989,-0.958c-0.484,-0.431 -0.987,-0.898 -1.475,-1.52c-0.531,-0.678 -1.059,-1.465 -1.499,-2.574c-0.378,-0.641 -0.164,-1.468 0.476,-1.846c0.641,-0.378 1.469,-0.164 1.846,0.477c0.681,0.837 1.377,1.272 1.978,1.692c0.614,0.429 1.18,0.75 1.669,1.137c0.459,0.364 0.84,0.789 1.183,1.27c0.299,0.508 0.624,1.174 0.828,1.913c0.249,0.898 0.382,1.836 0.527,2.355c0.007,0.023 -0,0.058 -0.004,0.073Zm-0.477,-0.357c-0.188,-0.1 -0.386,-0.121 -0.565,-0.121c0.202,-0 0.393,0.043 0.565,0.121Z" style="fill:#007d7d;"/>
                        <path d="M106.264,130.506c-0.741,0.071 -1.399,-0.473 -1.47,-1.214c-0.071,-0.74 0.473,-1.399 1.214,-1.47c0.728,-0.212 1.452,-0.453 2.204,-0.609c0.616,-0.128 1.216,-0.131 1.785,-0.127c0.437,0.035 0.887,0.124 1.321,0.282c0.388,0.142 0.759,0.339 1.108,0.534c0.266,0.149 0.478,0.341 0.706,0.434l1.634,0.589c0.758,0 1.374,0.616 1.374,1.374c-0,0.758 -0.616,1.373 -1.374,1.373c-0.378,0.076 -0.785,0.106 -1.225,0.138c-0.435,0.031 -0.861,-0.012 -1.283,-0.042c-0.368,-0.039 -0.764,-0.154 -1.194,-0.283c-0.316,-0.094 -0.647,-0.198 -0.974,-0.314c-0.211,-0.076 -0.407,-0.187 -0.615,-0.224c-0.44,-0.122 -0.916,-0.209 -1.424,-0.257c-0.607,-0.058 -1.195,-0.126 -1.787,-0.184Z" style="fill:#007d7d;"/>
                    </g>
                    <path id="Rider" d="M154.747,44.364c1.319,0.182 2.612,0.532 3.897,0.883c1.29,0.353 2.568,0.756 3.82,1.224c3.357,1.256 -1.525,4.271 -1.68,6.066c-0.093,1.075 1.324,2.226 0.653,3.344c-0.734,1.223 -1.151,0.754 -2.062,1.904c-1.679,2.122 -1.203,2.426 -3.112,4.303c-0.715,0.703 -1.623,-0.611 -2.282,0.179c-1.431,1.717 -1.45,4.323 -0.562,6.308c0.875,1.957 4.306,5.971 5.541,7.668c3.046,4.187 2.576,4.409 5.444,8.736c1.69,2.55 5.571,3.798 7.81,5.525c1.006,0.775 1.278,1.8 0.35,2.816c-2.143,2.346 -4.763,-0.338 -6.52,-1.529c-1.679,-1.138 -4.574,-2.871 -5.99,-4.581c-1.618,-1.954 -2.863,-4.2 -4.495,-6.142c-0.723,-0.86 -4.696,-4.992 -6.074,-2.08c-0.81,1.709 1.453,1.47 1.853,2.726c0.81,2.55 1.11,5.238 1.493,7.885c0.242,1.669 -0.086,2.315 -0.959,3.687c-0.607,0.955 -2.03,1.642 -1.961,2.771c0.093,1.498 4.442,6.133 5.308,7.048c0.443,0.468 1.188,0.709 1.423,1.31c0.364,0.934 0.179,1.998 0.259,2.998c0.365,4.534 0.696,4.546 -0.457,8.927c-0.481,1.827 -2.804,2.026 -3.38,3.789c-2.338,7.162 -2.171,7.178 -4.898,14.21c-0.364,0.94 -0.908,1.885 -0.886,2.893c0.01,0.449 0.579,0.713 0.97,0.932c1.012,0.569 3.184,0.899 3.938,2.061c0.452,0.695 0.015,2.5 -1.042,2.51c-2.084,0.019 -5.004,-0.805 -6.854,-1.215c-2.487,-0.552 -4.15,-0.614 -6.241,-2.139c-1.147,-0.835 0.999,-2.93 1.32,-3.186c0.333,-0.264 1.468,-0.254 1.645,-0.827c0.232,-0.754 -0.161,-1.63 0.129,-2.365c0.553,-1.403 1.688,-2.515 2.332,-3.879c2.336,-4.955 5.155,-10.812 3.808,-16.514c-0.624,-2.643 -4.019,-2.685 -5.856,-3.645c-1.866,-0.976 -1.175,-1.769 -3.083,-2.736c-1.906,-0.967 -2.614,-0.183 -4.487,-1.229c-0.674,-0.377 -1.105,-1.083 -1.718,-1.553c-2.271,-1.742 -5.779,-3.116 -6.247,-6.364c-0.288,-1.997 1.418,-5.166 1.816,-6.579c0.246,-0.875 0.433,-1.788 0.407,-2.697c-0.034,-1.145 -1.214,-2.221 -0.47,-3.385c1.338,-2.09 2.477,-2.579 3.169,-5.073c0.209,-0.754 -0.284,-1.642 0.055,-2.347c0.735,-1.534 1.947,-2.794 3.037,-4.1c2.879,-3.453 5.819,-6.858 8.862,-10.168c0.928,-1.01 2.177,-1.708 3.037,-2.775c1.43,-1.773 -1.359,-4.372 -2.26,-5.31c-0.339,-0.353 -1.099,-0.424 -1.152,-0.911c-0.133,-1.231 0.291,-2.474 0.659,-3.656c0.369,-1.182 0.84,-2.357 1.536,-3.382c0.507,-0.748 2.187,-1.224 2.963,-1.408c1.864,-0.444 5.238,-1.198 7.194,-0.928Z" style="fill:#007d7d;"/>
                </g>
            </g>
            <path d="M0.365,216.948l8.711,0c5.075,0 9.107,-2.196 9.107,-7.164c-0,-2.988 -1.584,-4.644 -4.212,-5.256l0,-0.144c1.944,-0.72 3.06,-2.736 3.06,-5.076c0,-4.5 -3.78,-5.832 -8.639,-5.832l-8.027,0l-0,23.472Zm5.291,-14.076l0,-5.292l2.52,0c2.484,0 3.672,0.684 3.672,2.52c-0,1.692 -1.116,2.772 -3.708,2.772l-2.484,0Zm0,9.972l0,-6.048l2.988,0c2.916,0 4.355,0.828 4.355,2.88c0,2.16 -1.475,3.168 -4.355,3.168l-2.988,0Z" style="fill:#004547;fill-rule:nonzero;"/>
            <rect x="22.143" y="193.476" width="5.292" height="23.472" style="fill:#004547;fill-rule:nonzero;"/>
            <path d="M32.978,216.948l5.291,0l0,-6.3l2.736,-3.6l5.723,9.9l5.796,0l-8.387,-14.112l7.091,-9.36l-5.831,0l-6.984,9.612l-0.144,0l0,-9.612l-5.291,0l-0,23.472Z" style="fill:#004547;fill-rule:nonzero;"/>
            <path d="M55.08,216.948l15.046,0l0,-4.464l-9.755,0l0,-5.4l7.992,0l-0,-4.428l-7.992,0l0,-4.716l9.395,0l0,-4.464l-14.686,0l-0,23.472Z" style="fill:#004547;fill-rule:nonzero;"/>
            <path d="M76.786,216.948l6.731,0l2.196,-10.656c0.36,-1.764 0.612,-3.636 0.864,-5.544l0.144,0c0.216,1.908 0.504,3.78 0.864,5.544l2.196,10.656l6.839,0l4.212,-23.472l-5.184,0l-1.656,10.944c-0.288,2.448 -0.612,4.932 -0.864,7.524l-0.144,0c-0.432,-2.592 -0.936,-5.112 -1.403,-7.524l-2.376,-10.944l-4.716,0l-2.484,10.944c-0.504,2.448 -0.936,4.932 -1.368,7.524l-0.144,0c-0.251,-2.592 -0.575,-5.04 -0.899,-7.524l-1.548,-10.944l-5.508,0l4.248,23.472Z" style="fill:#004547;fill-rule:nonzero;"/>
            <path d="M109.579,205.068c0.648,-2.34 1.26,-5.076 1.836,-7.56l0.144,0c0.612,2.448 1.26,5.22 1.908,7.56l0.54,2.16l-5.004,0l0.576,-2.16Zm-8.495,11.88l5.399,0l1.44,-5.58l7.163,0l1.44,5.58l5.616,0l-7.344,-23.472l-6.371,0l-7.343,23.472Z" style="fill:#004547;fill-rule:nonzero;"/>
            <path d="M124.698,216.948l14.578,0l0,-4.464l-9.287,0l0,-19.008l-5.291,0l-0,23.472Z" style="fill:#004547;fill-rule:nonzero;"/>
            <path d="M143.344,216.948l5.291,0l0,-6.3l2.736,-3.6l5.724,9.9l5.795,0l-8.387,-14.112l7.091,-9.36l-5.831,0l-6.984,9.612l-0.144,0l0,-9.612l-5.291,0l-0,23.472Z" style="fill:#004547;fill-rule:nonzero;"/>
            <path d="M168.074,217.38c1.836,0 3.203,-1.44 3.203,-3.312c0,-1.908 -1.367,-3.348 -3.203,-3.348c-1.836,0 -3.204,1.44 -3.204,3.348c0,1.872 1.368,3.312 3.204,3.312Z" style="fill:#004547;fill-rule:nonzero;"/>
            <path d="M176.245,216.948l14.579,0l-0,-4.464l-9.287,0l-0,-19.008l-5.292,0l0,23.472Z" style="fill:#004547;fill-rule:nonzero;"/>
            <rect x="194.891" y="193.476" width="5.292" height="23.472" style="fill:#004547;fill-rule:nonzero;"/>
            <path d="M205.726,216.948l5.292,0l-0,-9.108l8.135,0l0,-4.464l-8.135,0l-0,-5.436l9.503,0l0,-4.464l-14.795,0l0,23.472Z" style="fill:#004547;fill-rule:nonzero;"/>
            <path d="M224.589,216.948l15.046,0l0,-4.464l-9.755,0l0,-5.4l7.992,0l-0,-4.428l-7.992,0l0,-4.716l9.395,0l0,-4.464l-14.686,0l-0,23.472Z" style="fill:#004547;fill-rule:nonzero;"/>
        </g>
    </g>
</svg>
